<?xml version="1.0"?>
<svg xmlns="http://www.w3.org/2000/svg" xmlns:xlink="http://www.w3.org/1999/xlink" xmlns:svgjs="http://svgjs.com/svgjs" version="1.1" width="512" height="512" x="0" y="0" viewBox="0 0 205 205" style="enable-background:new 0 0 512 512" xml:space="preserve" class=""><g>
<path xmlns="http://www.w3.org/2000/svg" d="M150.5,0h-96C50.357,0,47,3.357,47,7.5v190c0,4.143,3.357,7.5,7.5,7.5h96c4.143,0,7.5-3.357,7.5-7.5V7.5  C158,3.357,154.643,0,150.5,0z M97.768,108.444c0,4.143-3.357,7.5-7.5,7.5H70.463c-4.143,0-7.5-3.357-7.5-7.5V86.077  c0-4.143,3.357-7.5,7.5-7.5h19.805c4.143,0,7.5,3.357,7.5,7.5V108.444z M97.768,60.684c0,4.143-3.357,7.5-7.5,7.5H70.463  c-4.143,0-7.5-3.357-7.5-7.5V29.642c0-3.513,2.438-6.555,5.867-7.32l19.805-4.419c2.221-0.495,4.546,0.045,6.323,1.468  c1.776,1.424,2.81,3.576,2.81,5.853V60.684z M142.038,108.444c0,4.143-3.357,7.5-7.5,7.5h-19.805c-4.143,0-7.5-3.357-7.5-7.5V86.077  c0-4.143,3.357-7.5,7.5-7.5h19.805c4.143,0,7.5,3.357,7.5,7.5V108.444z M142.038,60.684c0,4.143-3.357,7.5-7.5,7.5h-19.805  c-4.143,0-7.5-3.357-7.5-7.5V25.223c0-2.276,1.033-4.429,2.81-5.853c1.776-1.423,4.104-1.959,6.323-1.468l19.805,4.419  c3.429,0.766,5.867,3.808,5.867,7.32V60.684z" fill="#89f120" data-original="#000000" style="" class=""/>
<g xmlns="http://www.w3.org/2000/svg">
</g>
<g xmlns="http://www.w3.org/2000/svg">
</g>
<g xmlns="http://www.w3.org/2000/svg">
</g>
<g xmlns="http://www.w3.org/2000/svg">
</g>
<g xmlns="http://www.w3.org/2000/svg">
</g>
<g xmlns="http://www.w3.org/2000/svg">
</g>
<g xmlns="http://www.w3.org/2000/svg">
</g>
<g xmlns="http://www.w3.org/2000/svg">
</g>
<g xmlns="http://www.w3.org/2000/svg">
</g>
<g xmlns="http://www.w3.org/2000/svg">
</g>
<g xmlns="http://www.w3.org/2000/svg">
</g>
<g xmlns="http://www.w3.org/2000/svg">
</g>
<g xmlns="http://www.w3.org/2000/svg">
</g>
<g xmlns="http://www.w3.org/2000/svg">
</g>
<g xmlns="http://www.w3.org/2000/svg">
</g>
</g></svg>
