<svg xmlns="http://www.w3.org/2000/svg" width="52" height="52" viewBox="0 0 52 52">
    <g fill="none" fill-rule="evenodd">
        <g fill="#000" fill-rule="nonzero">
            <g>
                <g>
                    <path d="M22.798 49.467H3.011c-.475 0-.86-.39-.86-.87V5.17c0-.48.385-.869.86-.869h19.787c.475 0 .86.39.86.87v43.427c0 .48-.385.869-.86.869zM3.872 47.73h18.066V6.039H3.872v41.69z" transform="translate(-834 -682) translate(474 553) translate(360 129)"/>
                    <path d="M5.649 6.452c-.225 0-.44-.092-.592-.254l-.543-.578c-.195-.207-.262-.5-.176-.767.086-.268.311-.471.592-.532.28-.062.572.028.766.234l.544.58c.216.229.273.561.144.847-.127.285-.416.47-.735.47zM22.73 23.658c-.26 0-.507-.1-.682-.278l-1.18-1.19c-.347-.35-.323-.895.054-1.217.377-.322.964-.299 1.31.051l1.181 1.19c.25.252.315.617.167.93-.148.312-.482.514-.85.514zm-3.542-3.573c-.26 0-.507-.1-.683-.277l-1.179-1.192c-.235-.224-.32-.55-.222-.848.098-.3.363-.526.693-.592.33-.066.672.04.893.276l1.18 1.19c.25.252.315.616.168.928-.148.313-.481.515-.849.515h-.001zm-3.542-3.572c-.26 0-.507-.1-.682-.278l-1.181-1.191c-.225-.226-.303-.547-.204-.84.098-.295.358-.517.682-.585.324-.068.662.03.887.257l1.181 1.19c.25.252.315.616.167.929-.148.312-.481.515-.849.515l-.001.003zm-3.543-3.572c-.26 0-.507-.101-.682-.278l-1.18-1.191c-.347-.35-.322-.895.056-1.216.376-.322.963-.299 1.31.051l1.18 1.191c.249.251.314.616.167.928-.148.313-.482.515-.85.515zm-3.54-3.577c-.259 0-.506-.1-.682-.278l-1.184-1.19c-.347-.35-.322-.895.054-1.217.377-.321.964-.299 1.311.051l1.18 1.191c.249.251.315.614.167.927-.146.312-.478.515-.845.516zM24.461 27.96c-.319 0-.607-.146-.735-.37-.128-.226-.072-.488.144-.668l.044-.037-.044-.038c-.3-.252-.279-.643.048-.875.327-.231.835-.215 1.135.037l.544.456c.282.237.282.601 0 .838l-.544.455c-.152.129-.367.202-.592.202zM5.23 45.165c-.369 0-.702-.202-.85-.514-.148-.313-.083-.677.167-.928l1.18-1.192c.225-.226.562-.324.885-.257.324.068.584.29.683.583.099.293.022.613-.203.84l-1.181 1.187c-.175.179-.422.281-.682.281zm3.541-3.572c-.368 0-.7-.203-.848-.515-.148-.313-.083-.677.167-.929l1.18-1.19c.222-.236.564-.342.894-.276.33.066.595.292.693.592.098.3.012.625-.222.849l-1.18 1.19c-.176.177-.424.276-.684.275v.004zm3.543-3.573c-.368 0-.701-.202-.849-.515-.148-.312-.083-.677.167-.928l1.18-1.194c.347-.35.934-.373 1.311-.05.377.32.402.865.055 1.215l-1.18 1.19c-.176.178-.424.279-.684.278v.004zm3.544-3.572c-.368 0-.702-.202-.85-.514-.148-.313-.082-.677.167-.929l1.18-1.19c.346-.35.933-.373 1.31-.052.378.322.403.867.056 1.217l-1.18 1.186c-.175.177-.423.278-.683.278v.004zm3.54-3.576c-.368 0-.7-.203-.849-.516-.147-.312-.082-.676.167-.928l1.181-1.19c.224-.227.562-.325.885-.258.324.067.584.29.683.583.1.293.022.613-.203.84l-1.18 1.19c-.176.178-.424.279-.684.279z" transform="translate(-834 -682) translate(474 553) translate(360 129)"/>
                    <path d="M5.11 47.316c-.32 0-.611-.186-.74-.473-.13-.288-.072-.623.145-.854l.547-.582c.305-.309.806-.323 1.129-.033.322.29.35.78.062 1.103l-.548.582c-.153.164-.368.257-.595.257z" transform="translate(-834 -682) translate(474 553) translate(360 129)"/>
                    <path d="M49.897 51.618H1.72c-.95 0-1.72-.77-1.72-1.72V1.72C0 .77.77 0 1.72 0h48.177c.95 0 1.72.77 1.72 1.72v48.177c0 .95-.77 1.72-1.72 1.72zM1.72 1.72v48.177h48.177V1.72H1.72zm45.596 46.457H27.529c-.474 0-.86-.386-.86-.861V4.302c0-.476.386-.861.86-.861h19.787c.475 0 .86.385.86.86v43.015c0 .475-.385.86-.86.86zM28.39 46.456h18.066V5.162H28.39v41.294zm-4.302 1.72H4.302c-.476 0-.861-.385-.861-.86V4.302c0-.476.385-.861.86-.861h19.787c.475 0 .86.385.86.86v43.015c0 .475-.385.86-.86.86zm-18.926-1.72h18.066V5.162H5.162v41.294z" transform="translate(-834 -682) translate(474 553) translate(360 129)"/>
                    <path d="M48.606 49.467H28.82c-.475 0-.86-.39-.86-.87V5.17c0-.48.385-.869.86-.869h19.786c.476 0 .86.39.86.87v43.427c0 .48-.384.869-.86.869zM29.68 47.73h18.066V6.039H29.68v41.69z" transform="translate(-834 -682) translate(474 553) translate(360 129)"/>
                    <path d="M45.969 6.452c-.32 0-.608-.185-.736-.47-.128-.286-.071-.618.145-.848l.543-.578c.3-.32.809-.341 1.135-.047.327.294.348.791.048 1.11l-.544.58c-.152.161-.367.253-.591.253zM28.887 23.658c-.368 0-.701-.202-.85-.515-.147-.312-.082-.677.167-.928l1.181-1.19c.347-.35.934-.374 1.31-.052.378.322.402.866.056 1.216l-1.181 1.19c-.175.179-.423.28-.683.28zm3.543-3.573c-.369 0-.702-.202-.85-.515-.147-.312-.082-.676.168-.928l1.18-1.19c.222-.236.564-.342.894-.276.33.066.595.292.693.591.098.3.013.625-.222.85l-1.18 1.19c-.177.176-.425.276-.683.275v.003zm3.543-3.572c-.369 0-.702-.202-.85-.515-.148-.313-.082-.677.167-.928l1.18-1.194c.347-.35.934-.373 1.311-.051.377.322.402.866.055 1.216l-1.18 1.19c-.175.178-.423.279-.683.277v.005zm3.543-3.572c-.368 0-.702-.202-.85-.515-.147-.312-.082-.677.167-.928l1.18-1.191c.347-.35.934-.373 1.31-.051.378.321.403.866.056 1.216l-1.18 1.187c-.175.177-.423.278-.682.278l-.001.004zm3.54-3.577c-.368 0-.7-.202-.849-.515-.147-.313-.081-.676.167-.928l1.181-1.191c.225-.226.562-.324.885-.257.324.067.584.29.683.582.099.294.022.614-.202.84L43.74 9.086c-.176.177-.424.278-.684.278zM27.156 27.958c-.225 0-.44-.072-.591-.2l-.544-.455c-.283-.237-.283-.602 0-.838l.544-.456c.194-.163.486-.234.766-.185.28.048.506.208.592.419.085.21.018.441-.176.604l-.044.037.044.037c.216.181.273.443.145.668-.128.225-.417.37-.736.37zM46.387 45.165c-.258 0-.506-.1-.68-.277l-1.182-1.191c-.346-.35-.322-.895.055-1.216.377-.322.964-.3 1.31.05l1.181 1.192c.25.251.315.615.167.928-.148.312-.48.514-.85.514zm-3.541-3.572c-.26 0-.507-.101-.683-.278l-1.18-1.191c-.235-.224-.32-.55-.222-.85.098-.299.363-.525.693-.59.33-.067.672.039.894.275l1.18 1.19c.25.252.315.616.167.929-.148.312-.48.514-.848.515h-.001zm-3.544-3.573c-.26 0-.507-.1-.682-.278l-1.181-1.19c-.348-.35-.324-.895.053-1.218.377-.323.964-.301 1.312.049l1.182 1.19c.25.252.314.616.166.929-.147.313-.48.515-.849.515v.003zm-3.543-3.572c-.26 0-.507-.1-.683-.277l-1.18-1.191c-.346-.35-.322-.895.056-1.217.377-.321.964-.299 1.31.051l1.18 1.191c.25.252.315.616.167.929-.148.312-.48.514-.849.514h-.001zm-3.54-3.576c-.26 0-.508-.101-.683-.279l-1.18-1.19c-.226-.227-.302-.547-.203-.84.099-.294.359-.516.683-.583.323-.067.66.031.884.258l1.181 1.19c.25.252.315.616.167.928-.148.313-.48.515-.849.516z" transform="translate(-834 -682) translate(474 553) translate(360 129)"/>
                    <path d="M46.512 47.316c-.225 0-.439-.092-.59-.254l-.545-.578c-.3-.32-.279-.818.048-1.111.327-.294.835-.273 1.135.047l.544.578c.216.23.272.562.144.848-.128.286-.417.47-.736.47z" transform="translate(-834 -682) translate(474 553) translate(360 129)"/>
                </g>
            </g>
        </g>
    </g>
</svg>
