<svg xmlns="http://www.w3.org/2000/svg" width="52" height="52" viewBox="0 0 52 52">
    <g fill="none" fill-rule="evenodd">
        <g fill="#fff" fill-rule="nonzero">
            <g>
                <g>
                    <path d="M50.73 47.216h-6.9v-43.7c0-.451-.339-.83-.787-.88L19.745.005c-.25-.029-.502.051-.69.22-.188.168-.296.408-.296.66V2.63H8.672c-.49 0-.886.397-.886.887v43.7h-6.9c-.49 0-.886.397-.886.886 0 .49.397.886.886.886H18.76v1.743c0 .49.397.887.887.887.034 0 .067-.002.101-.006l23.247-2.624h7.737c.49 0 .887-.396.887-.886s-.397-.886-.887-.886h-.001zM9.559 4.402h9.2v2.28h-6.035c-.49 0-.887.396-.887.886v39.648H9.558V4.402zm4.052 42.814V8.454h5.148v38.762h-5.148zm6.921-45.338L42.057 4.31V47.31l-21.525 2.432V1.878z" transform="translate(-523 -682) translate(474 553) translate(49 129)"/>
                    <path d="M23.716 23.716c-1.54 0-2.79 1.25-2.79 2.79 0 1.541 1.25 2.79 2.79 2.79 1.541 0 2.79-1.249 2.79-2.79-.001-1.54-1.25-2.788-2.79-2.79zm0 3.705c-.505 0-.915-.41-.915-.915 0-.505.41-.915.915-.915.506 0 .915.41.915.915 0 .505-.41.915-.915.915z" transform="translate(-523 -682) translate(474 553) translate(49 129)"/>
                </g>
            </g>
        </g>
    </g>
</svg>
